<svg xmlns="http://www.w3.org/2000/svg" width="640" height="1760" viewBox="0 0 640 1760">
<defs>
  <linearGradient id="metal" x1="0" y1="0" x2="0" y2="1"><stop stop-color="#f8fbfc"/><stop offset=".48" stop-color="#c7d1d6"/><stop offset="1" stop-color="#71808a"/></linearGradient>
  <linearGradient id="glass" x1="0" y1="0" x2="1" y2="1"><stop stop-color="#eaf9ff" stop-opacity=".9"/><stop offset=".5" stop-color="#8ec9df" stop-opacity=".45"/><stop offset="1" stop-color="#326b86" stop-opacity=".7"/></linearGradient>
  <linearGradient id="wood" x1="0" y1="0" x2="0" y2="1"><stop stop-color="#a77c54"/><stop offset="1" stop-color="#5d3d29"/></linearGradient>
  <linearGradient id="green" x1="0" y1="0" x2="0" y2="1"><stop stop-color="#56a873"/><stop offset="1" stop-color="#1f6944"/></linearGradient>
  <linearGradient id="blue" x1="0" y1="0" x2="0" y2="1"><stop stop-color="#4d8dc4"/><stop offset="1" stop-color="#244e79"/></linearGradient>
  <linearGradient id="orange" x1="0" y1="0" x2="0" y2="1"><stop stop-color="#ef9b4b"/><stop offset="1" stop-color="#bd4d2d"/></linearGradient>
  <filter id="shadow" x="-30%" y="-30%" width="160%" height="180%"><feDropShadow dx="0" dy="6" stdDeviation="5" flood-color="#14202b" flood-opacity=".42"/></filter>
  <filter id="soft" x="-30%" y="-30%" width="160%" height="160%"><feGaussianBlur stdDeviation="3"/></filter>
  
</defs>
<g transform="translate(0 0)"><g filter="url(#shadow)"><ellipse cx="96" cy="222" rx="48" ry="10" fill="#16202a" opacity=".25"/><ellipse cx="96" cy="78" rx="34" ry="34" fill="#f0bd91" stroke="#5b3d2e" stroke-width="4"/><path d="M60 76q2-47 38-47 38 0 39 44-20-15-37-12-20 4-40 15z" fill="#3a2b25" stroke="#231b18" stroke-width="6"/><circle cx="84" cy="79" r="4" fill="#222"/><circle cx="109" cy="79" r="4" fill="#222"/><path d="M88 94q8 7 17 0" fill="none" stroke="#8f4f45" stroke-width="3" stroke-linecap="round"/><rect x="58" y="108" width="76" height="70" rx="22" fill="#1f3d63" stroke="#23313a" stroke-width="6"/><rect x="65" y="171" width="28" height="44" rx="10" fill="#263a58" stroke="#1c2733" stroke-width="5"/><rect x="100" y="171" width="28" height="44" rx="10" fill="#263a58" stroke="#1c2733" stroke-width="5"/><path d="M68 214h29M98 214h33" stroke="#25211f" stroke-width="9" stroke-linecap="round"/></g></g><g transform="translate(160 0)"><g transform="translate(160 0) scale(-1 1)" filter="url(#shadow)"><ellipse cx="96" cy="222" rx="48" ry="10" fill="#16202a" opacity=".25"/><path d="M75 48q30-28 60 2v50q-11 20-36 18-25-2-30-22z" fill="#3a2b25" stroke="#231b18" stroke-width="6"/><ellipse cx="113" cy="78" rx="27" ry="31" fill="#f0bd91" stroke="#5b3d2e" stroke-width="4"/><circle cx="125" cy="75" r="4" fill="#222"/><rect x="58" y="108" width="76" height="70" rx="22" fill="#1f3d63" stroke="#23313a" stroke-width="6"/><rect x="65" y="171" width="28" height="44" rx="10" fill="#263a58" stroke="#1c2733" stroke-width="5"/><rect x="100" y="171" width="28" height="44" rx="10" fill="#263a58" stroke="#1c2733" stroke-width="5"/><path d="M68 214h29M98 214h33" stroke="#25211f" stroke-width="9" stroke-linecap="round"/></g></g><g transform="translate(320 0)"><g filter="url(#shadow)"><ellipse cx="96" cy="222" rx="48" ry="10" fill="#16202a" opacity=".25"/><path d="M75 48q30-28 60 2v50q-11 20-36 18-25-2-30-22z" fill="#3a2b25" stroke="#231b18" stroke-width="6"/><ellipse cx="113" cy="78" rx="27" ry="31" fill="#f0bd91" stroke="#5b3d2e" stroke-width="4"/><circle cx="125" cy="75" r="4" fill="#222"/><rect x="58" y="108" width="76" height="70" rx="22" fill="#1f3d63" stroke="#23313a" stroke-width="6"/><rect x="65" y="171" width="28" height="44" rx="10" fill="#263a58" stroke="#1c2733" stroke-width="5"/><rect x="100" y="171" width="28" height="44" rx="10" fill="#263a58" stroke="#1c2733" stroke-width="5"/><path d="M68 214h29M98 214h33" stroke="#25211f" stroke-width="9" stroke-linecap="round"/></g></g><g transform="translate(480 0)"><g filter="url(#shadow)"><ellipse cx="96" cy="222" rx="48" ry="10" fill="#16202a" opacity=".25"/><ellipse cx="96" cy="78" rx="34" ry="34" fill="#f0bd91" stroke="#5b3d2e" stroke-width="4"/><path d="M60 76q2-47 38-47 38 0 39 44-20-15-37-12-20 4-40 15z" fill="#3a2b25" stroke="#231b18" stroke-width="6"/><rect x="58" y="108" width="76" height="70" rx="22" fill="#1f3d63" stroke="#23313a" stroke-width="6"/><rect x="65" y="171" width="28" height="44" rx="10" fill="#263a58" stroke="#1c2733" stroke-width="5"/><rect x="100" y="171" width="28" height="44" rx="10" fill="#263a58" stroke="#1c2733" stroke-width="5"/><path d="M68 214h29M98 214h33" stroke="#25211f" stroke-width="9" stroke-linecap="round"/></g></g><g transform="translate(0 220)"><g filter="url(#shadow)"><ellipse cx="96" cy="222" rx="48" ry="10" fill="#16202a" opacity=".25"/><ellipse cx="96" cy="78" rx="34" ry="34" fill="#dca272" stroke="#5b3d2e" stroke-width="4"/><path d="M60 76q2-47 38-47 38 0 39 44-20-15-37-12-20 4-40 15z" fill="#221f20" stroke="#231b18" stroke-width="6"/><circle cx="84" cy="79" r="4" fill="#222"/><circle cx="109" cy="79" r="4" fill="#222"/><path d="M88 94q8 7 17 0" fill="none" stroke="#8f4f45" stroke-width="3" stroke-linecap="round"/><rect x="58" y="108" width="76" height="70" rx="22" fill="#345f8a" stroke="#23313a" stroke-width="6"/><rect x="65" y="171" width="28" height="44" rx="10" fill="#263a58" stroke="#1c2733" stroke-width="5"/><rect x="100" y="171" width="28" height="44" rx="10" fill="#263a58" stroke="#1c2733" stroke-width="5"/><path d="M68 214h29M98 214h33" stroke="#25211f" stroke-width="9" stroke-linecap="round"/><path d="M38 124v56h38" fill="none" stroke="#59422f" stroke-width="8"/><rect x="25" y="163" width="51" height="31" rx="6" fill="#75533b"/></g></g><g transform="translate(160 220)"><g transform="translate(160 0) scale(-1 1)" filter="url(#shadow)"><ellipse cx="96" cy="222" rx="48" ry="10" fill="#16202a" opacity=".25"/><path d="M75 48q30-28 60 2v50q-11 20-36 18-25-2-30-22z" fill="#221f20" stroke="#231b18" stroke-width="6"/><ellipse cx="113" cy="78" rx="27" ry="31" fill="#dca272" stroke="#5b3d2e" stroke-width="4"/><circle cx="125" cy="75" r="4" fill="#222"/><rect x="58" y="108" width="76" height="70" rx="22" fill="#345f8a" stroke="#23313a" stroke-width="6"/><rect x="65" y="171" width="28" height="44" rx="10" fill="#263a58" stroke="#1c2733" stroke-width="5"/><rect x="100" y="171" width="28" height="44" rx="10" fill="#263a58" stroke="#1c2733" stroke-width="5"/><path d="M68 214h29M98 214h33" stroke="#25211f" stroke-width="9" stroke-linecap="round"/><path d="M38 124v56h38" fill="none" stroke="#59422f" stroke-width="8"/><rect x="25" y="163" width="51" height="31" rx="6" fill="#75533b"/></g></g><g transform="translate(320 220)"><g filter="url(#shadow)"><ellipse cx="96" cy="222" rx="48" ry="10" fill="#16202a" opacity=".25"/><path d="M75 48q30-28 60 2v50q-11 20-36 18-25-2-30-22z" fill="#221f20" stroke="#231b18" stroke-width="6"/><ellipse cx="113" cy="78" rx="27" ry="31" fill="#dca272" stroke="#5b3d2e" stroke-width="4"/><circle cx="125" cy="75" r="4" fill="#222"/><rect x="58" y="108" width="76" height="70" rx="22" fill="#345f8a" stroke="#23313a" stroke-width="6"/><rect x="65" y="171" width="28" height="44" rx="10" fill="#263a58" stroke="#1c2733" stroke-width="5"/><rect x="100" y="171" width="28" height="44" rx="10" fill="#263a58" stroke="#1c2733" stroke-width="5"/><path d="M68 214h29M98 214h33" stroke="#25211f" stroke-width="9" stroke-linecap="round"/><path d="M38 124v56h38" fill="none" stroke="#59422f" stroke-width="8"/><rect x="25" y="163" width="51" height="31" rx="6" fill="#75533b"/></g></g><g transform="translate(480 220)"><g filter="url(#shadow)"><ellipse cx="96" cy="222" rx="48" ry="10" fill="#16202a" opacity=".25"/><ellipse cx="96" cy="78" rx="34" ry="34" fill="#dca272" stroke="#5b3d2e" stroke-width="4"/><path d="M60 76q2-47 38-47 38 0 39 44-20-15-37-12-20 4-40 15z" fill="#221f20" stroke="#231b18" stroke-width="6"/><rect x="58" y="108" width="76" height="70" rx="22" fill="#345f8a" stroke="#23313a" stroke-width="6"/><rect x="65" y="171" width="28" height="44" rx="10" fill="#263a58" stroke="#1c2733" stroke-width="5"/><rect x="100" y="171" width="28" height="44" rx="10" fill="#263a58" stroke="#1c2733" stroke-width="5"/><path d="M68 214h29M98 214h33" stroke="#25211f" stroke-width="9" stroke-linecap="round"/><path d="M38 124v56h38" fill="none" stroke="#59422f" stroke-width="8"/><rect x="25" y="163" width="51" height="31" rx="6" fill="#75533b"/></g></g><g transform="translate(0 440)"><g filter="url(#shadow)"><ellipse cx="96" cy="222" rx="48" ry="10" fill="#16202a" opacity=".25"/><ellipse cx="96" cy="78" rx="34" ry="34" fill="#f3c79b" stroke="#5b3d2e" stroke-width="4"/><path d="M60 76q2-47 38-47 38 0 39 44-20-15-37-12-20 4-40 15z" fill="#5a3726" stroke="#231b18" stroke-width="6"/><circle cx="84" cy="79" r="4" fill="#222"/><circle cx="109" cy="79" r="4" fill="#222"/><path d="M88 94q8 7 17 0" fill="none" stroke="#8f4f45" stroke-width="3" stroke-linecap="round"/><rect x="58" y="108" width="76" height="70" rx="22" fill="#2a567f" stroke="#23313a" stroke-width="6"/><rect x="65" y="171" width="28" height="44" rx="10" fill="#263a58" stroke="#1c2733" stroke-width="5"/><rect x="100" y="171" width="28" height="44" rx="10" fill="#263a58" stroke="#1c2733" stroke-width="5"/><path d="M68 214h29M98 214h33" stroke="#25211f" stroke-width="9" stroke-linecap="round"/><path d="M38 124v56h38" fill="none" stroke="#59422f" stroke-width="8"/><rect x="25" y="163" width="51" height="31" rx="6" fill="#75533b"/></g></g><g transform="translate(160 440)"><g transform="translate(160 0) scale(-1 1)" filter="url(#shadow)"><ellipse cx="96" cy="222" rx="48" ry="10" fill="#16202a" opacity=".25"/><path d="M75 48q30-28 60 2v50q-11 20-36 18-25-2-30-22z" fill="#5a3726" stroke="#231b18" stroke-width="6"/><ellipse cx="113" cy="78" rx="27" ry="31" fill="#f3c79b" stroke="#5b3d2e" stroke-width="4"/><circle cx="125" cy="75" r="4" fill="#222"/><rect x="58" y="108" width="76" height="70" rx="22" fill="#2a567f" stroke="#23313a" stroke-width="6"/><rect x="65" y="171" width="28" height="44" rx="10" fill="#263a58" stroke="#1c2733" stroke-width="5"/><rect x="100" y="171" width="28" height="44" rx="10" fill="#263a58" stroke="#1c2733" stroke-width="5"/><path d="M68 214h29M98 214h33" stroke="#25211f" stroke-width="9" stroke-linecap="round"/><path d="M38 124v56h38" fill="none" stroke="#59422f" stroke-width="8"/><rect x="25" y="163" width="51" height="31" rx="6" fill="#75533b"/></g></g><g transform="translate(320 440)"><g filter="url(#shadow)"><ellipse cx="96" cy="222" rx="48" ry="10" fill="#16202a" opacity=".25"/><path d="M75 48q30-28 60 2v50q-11 20-36 18-25-2-30-22z" fill="#5a3726" stroke="#231b18" stroke-width="6"/><ellipse cx="113" cy="78" rx="27" ry="31" fill="#f3c79b" stroke="#5b3d2e" stroke-width="4"/><circle cx="125" cy="75" r="4" fill="#222"/><rect x="58" y="108" width="76" height="70" rx="22" fill="#2a567f" stroke="#23313a" stroke-width="6"/><rect x="65" y="171" width="28" height="44" rx="10" fill="#263a58" stroke="#1c2733" stroke-width="5"/><rect x="100" y="171" width="28" height="44" rx="10" fill="#263a58" stroke="#1c2733" stroke-width="5"/><path d="M68 214h29M98 214h33" stroke="#25211f" stroke-width="9" stroke-linecap="round"/><path d="M38 124v56h38" fill="none" stroke="#59422f" stroke-width="8"/><rect x="25" y="163" width="51" height="31" rx="6" fill="#75533b"/></g></g><g transform="translate(480 440)"><g filter="url(#shadow)"><ellipse cx="96" cy="222" rx="48" ry="10" fill="#16202a" opacity=".25"/><ellipse cx="96" cy="78" rx="34" ry="34" fill="#f3c79b" stroke="#5b3d2e" stroke-width="4"/><path d="M60 76q2-47 38-47 38 0 39 44-20-15-37-12-20 4-40 15z" fill="#5a3726" stroke="#231b18" stroke-width="6"/><rect x="58" y="108" width="76" height="70" rx="22" fill="#2a567f" stroke="#23313a" stroke-width="6"/><rect x="65" y="171" width="28" height="44" rx="10" fill="#263a58" stroke="#1c2733" stroke-width="5"/><rect x="100" y="171" width="28" height="44" rx="10" fill="#263a58" stroke="#1c2733" stroke-width="5"/><path d="M68 214h29M98 214h33" stroke="#25211f" stroke-width="9" stroke-linecap="round"/><path d="M38 124v56h38" fill="none" stroke="#59422f" stroke-width="8"/><rect x="25" y="163" width="51" height="31" rx="6" fill="#75533b"/></g></g><g transform="translate(0 660)"><g filter="url(#shadow)"><ellipse cx="96" cy="222" rx="48" ry="10" fill="#16202a" opacity=".25"/><ellipse cx="96" cy="78" rx="34" ry="34" fill="#c98b64" stroke="#5b3d2e" stroke-width="4"/><path d="M60 76q2-47 38-47 38 0 39 44-20-15-37-12-20 4-40 15z" fill="#4a3228" stroke="#231b18" stroke-width="6"/><circle cx="84" cy="79" r="4" fill="#222"/><circle cx="109" cy="79" r="4" fill="#222"/><path d="M88 94q8 7 17 0" fill="none" stroke="#8f4f45" stroke-width="3" stroke-linecap="round"/><rect x="58" y="108" width="76" height="70" rx="22" fill="#cf6b3a" stroke="#23313a" stroke-width="6"/><rect x="65" y="171" width="28" height="44" rx="10" fill="#263a58" stroke="#1c2733" stroke-width="5"/><rect x="100" y="171" width="28" height="44" rx="10" fill="#263a58" stroke="#1c2733" stroke-width="5"/><path d="M68 214h29M98 214h33" stroke="#25211f" stroke-width="9" stroke-linecap="round"/><path d="M38 124v56h38" fill="none" stroke="#59422f" stroke-width="8"/><rect x="25" y="163" width="51" height="31" rx="6" fill="#75533b"/></g></g><g transform="translate(160 660)"><g transform="translate(160 0) scale(-1 1)" filter="url(#shadow)"><ellipse cx="96" cy="222" rx="48" ry="10" fill="#16202a" opacity=".25"/><path d="M75 48q30-28 60 2v50q-11 20-36 18-25-2-30-22z" fill="#4a3228" stroke="#231b18" stroke-width="6"/><ellipse cx="113" cy="78" rx="27" ry="31" fill="#c98b64" stroke="#5b3d2e" stroke-width="4"/><circle cx="125" cy="75" r="4" fill="#222"/><rect x="58" y="108" width="76" height="70" rx="22" fill="#cf6b3a" stroke="#23313a" stroke-width="6"/><rect x="65" y="171" width="28" height="44" rx="10" fill="#263a58" stroke="#1c2733" stroke-width="5"/><rect x="100" y="171" width="28" height="44" rx="10" fill="#263a58" stroke="#1c2733" stroke-width="5"/><path d="M68 214h29M98 214h33" stroke="#25211f" stroke-width="9" stroke-linecap="round"/><path d="M38 124v56h38" fill="none" stroke="#59422f" stroke-width="8"/><rect x="25" y="163" width="51" height="31" rx="6" fill="#75533b"/></g></g><g transform="translate(320 660)"><g filter="url(#shadow)"><ellipse cx="96" cy="222" rx="48" ry="10" fill="#16202a" opacity=".25"/><path d="M75 48q30-28 60 2v50q-11 20-36 18-25-2-30-22z" fill="#4a3228" stroke="#231b18" stroke-width="6"/><ellipse cx="113" cy="78" rx="27" ry="31" fill="#c98b64" stroke="#5b3d2e" stroke-width="4"/><circle cx="125" cy="75" r="4" fill="#222"/><rect x="58" y="108" width="76" height="70" rx="22" fill="#cf6b3a" stroke="#23313a" stroke-width="6"/><rect x="65" y="171" width="28" height="44" rx="10" fill="#263a58" stroke="#1c2733" stroke-width="5"/><rect x="100" y="171" width="28" height="44" rx="10" fill="#263a58" stroke="#1c2733" stroke-width="5"/><path d="M68 214h29M98 214h33" stroke="#25211f" stroke-width="9" stroke-linecap="round"/><path d="M38 124v56h38" fill="none" stroke="#59422f" stroke-width="8"/><rect x="25" y="163" width="51" height="31" rx="6" fill="#75533b"/></g></g><g transform="translate(480 660)"><g filter="url(#shadow)"><ellipse cx="96" cy="222" rx="48" ry="10" fill="#16202a" opacity=".25"/><ellipse cx="96" cy="78" rx="34" ry="34" fill="#c98b64" stroke="#5b3d2e" stroke-width="4"/><path d="M60 76q2-47 38-47 38 0 39 44-20-15-37-12-20 4-40 15z" fill="#4a3228" stroke="#231b18" stroke-width="6"/><rect x="58" y="108" width="76" height="70" rx="22" fill="#cf6b3a" stroke="#23313a" stroke-width="6"/><rect x="65" y="171" width="28" height="44" rx="10" fill="#263a58" stroke="#1c2733" stroke-width="5"/><rect x="100" y="171" width="28" height="44" rx="10" fill="#263a58" stroke="#1c2733" stroke-width="5"/><path d="M68 214h29M98 214h33" stroke="#25211f" stroke-width="9" stroke-linecap="round"/><path d="M38 124v56h38" fill="none" stroke="#59422f" stroke-width="8"/><rect x="25" y="163" width="51" height="31" rx="6" fill="#75533b"/></g></g><g transform="translate(0 880)"><g filter="url(#shadow)"><ellipse cx="96" cy="222" rx="48" ry="10" fill="#16202a" opacity=".25"/><ellipse cx="96" cy="78" rx="34" ry="34" fill="#f0bd91" stroke="#5b3d2e" stroke-width="4"/><path d="M60 76q2-47 38-47 38 0 39 44-20-15-37-12-20 4-40 15z" fill="#6b4a31" stroke="#231b18" stroke-width="6"/><circle cx="84" cy="79" r="4" fill="#222"/><circle cx="109" cy="79" r="4" fill="#222"/><path d="M88 94q8 7 17 0" fill="none" stroke="#8f4f45" stroke-width="3" stroke-linecap="round"/><rect x="58" y="108" width="76" height="70" rx="22" fill="#417a51" stroke="#23313a" stroke-width="6"/><rect x="65" y="171" width="28" height="44" rx="10" fill="#263a58" stroke="#1c2733" stroke-width="5"/><rect x="100" y="171" width="28" height="44" rx="10" fill="#263a58" stroke="#1c2733" stroke-width="5"/><path d="M68 214h29M98 214h33" stroke="#25211f" stroke-width="9" stroke-linecap="round"/></g></g><g transform="translate(160 880)"><g transform="translate(160 0) scale(-1 1)" filter="url(#shadow)"><ellipse cx="96" cy="222" rx="48" ry="10" fill="#16202a" opacity=".25"/><path d="M75 48q30-28 60 2v50q-11 20-36 18-25-2-30-22z" fill="#6b4a31" stroke="#231b18" stroke-width="6"/><ellipse cx="113" cy="78" rx="27" ry="31" fill="#f0bd91" stroke="#5b3d2e" stroke-width="4"/><circle cx="125" cy="75" r="4" fill="#222"/><rect x="58" y="108" width="76" height="70" rx="22" fill="#417a51" stroke="#23313a" stroke-width="6"/><rect x="65" y="171" width="28" height="44" rx="10" fill="#263a58" stroke="#1c2733" stroke-width="5"/><rect x="100" y="171" width="28" height="44" rx="10" fill="#263a58" stroke="#1c2733" stroke-width="5"/><path d="M68 214h29M98 214h33" stroke="#25211f" stroke-width="9" stroke-linecap="round"/></g></g><g transform="translate(320 880)"><g filter="url(#shadow)"><ellipse cx="96" cy="222" rx="48" ry="10" fill="#16202a" opacity=".25"/><path d="M75 48q30-28 60 2v50q-11 20-36 18-25-2-30-22z" fill="#6b4a31" stroke="#231b18" stroke-width="6"/><ellipse cx="113" cy="78" rx="27" ry="31" fill="#f0bd91" stroke="#5b3d2e" stroke-width="4"/><circle cx="125" cy="75" r="4" fill="#222"/><rect x="58" y="108" width="76" height="70" rx="22" fill="#417a51" stroke="#23313a" stroke-width="6"/><rect x="65" y="171" width="28" height="44" rx="10" fill="#263a58" stroke="#1c2733" stroke-width="5"/><rect x="100" y="171" width="28" height="44" rx="10" fill="#263a58" stroke="#1c2733" stroke-width="5"/><path d="M68 214h29M98 214h33" stroke="#25211f" stroke-width="9" stroke-linecap="round"/></g></g><g transform="translate(480 880)"><g filter="url(#shadow)"><ellipse cx="96" cy="222" rx="48" ry="10" fill="#16202a" opacity=".25"/><ellipse cx="96" cy="78" rx="34" ry="34" fill="#f0bd91" stroke="#5b3d2e" stroke-width="4"/><path d="M60 76q2-47 38-47 38 0 39 44-20-15-37-12-20 4-40 15z" fill="#6b4a31" stroke="#231b18" stroke-width="6"/><rect x="58" y="108" width="76" height="70" rx="22" fill="#417a51" stroke="#23313a" stroke-width="6"/><rect x="65" y="171" width="28" height="44" rx="10" fill="#263a58" stroke="#1c2733" stroke-width="5"/><rect x="100" y="171" width="28" height="44" rx="10" fill="#263a58" stroke="#1c2733" stroke-width="5"/><path d="M68 214h29M98 214h33" stroke="#25211f" stroke-width="9" stroke-linecap="round"/></g></g><g transform="translate(0 1100)"><g filter="url(#shadow)"><ellipse cx="96" cy="222" rx="48" ry="10" fill="#16202a" opacity=".25"/><ellipse cx="96" cy="78" rx="34" ry="34" fill="#dca272" stroke="#5b3d2e" stroke-width="4"/><path d="M60 76q2-47 38-47 38 0 39 44-20-15-37-12-20 4-40 15z" fill="#2d2827" stroke="#231b18" stroke-width="6"/><circle cx="84" cy="79" r="4" fill="#222"/><circle cx="109" cy="79" r="4" fill="#222"/><path d="M88 94q8 7 17 0" fill="none" stroke="#8f4f45" stroke-width="3" stroke-linecap="round"/><rect x="58" y="108" width="76" height="70" rx="22" fill="#45464c" stroke="#23313a" stroke-width="6"/><rect x="65" y="171" width="28" height="44" rx="10" fill="#263a58" stroke="#1c2733" stroke-width="5"/><rect x="100" y="171" width="28" height="44" rx="10" fill="#263a58" stroke="#1c2733" stroke-width="5"/><path d="M68 214h29M98 214h33" stroke="#25211f" stroke-width="9" stroke-linecap="round"/></g></g><g transform="translate(160 1100)"><g transform="translate(160 0) scale(-1 1)" filter="url(#shadow)"><ellipse cx="96" cy="222" rx="48" ry="10" fill="#16202a" opacity=".25"/><path d="M75 48q30-28 60 2v50q-11 20-36 18-25-2-30-22z" fill="#2d2827" stroke="#231b18" stroke-width="6"/><ellipse cx="113" cy="78" rx="27" ry="31" fill="#dca272" stroke="#5b3d2e" stroke-width="4"/><circle cx="125" cy="75" r="4" fill="#222"/><rect x="58" y="108" width="76" height="70" rx="22" fill="#45464c" stroke="#23313a" stroke-width="6"/><rect x="65" y="171" width="28" height="44" rx="10" fill="#263a58" stroke="#1c2733" stroke-width="5"/><rect x="100" y="171" width="28" height="44" rx="10" fill="#263a58" stroke="#1c2733" stroke-width="5"/><path d="M68 214h29M98 214h33" stroke="#25211f" stroke-width="9" stroke-linecap="round"/></g></g><g transform="translate(320 1100)"><g filter="url(#shadow)"><ellipse cx="96" cy="222" rx="48" ry="10" fill="#16202a" opacity=".25"/><path d="M75 48q30-28 60 2v50q-11 20-36 18-25-2-30-22z" fill="#2d2827" stroke="#231b18" stroke-width="6"/><ellipse cx="113" cy="78" rx="27" ry="31" fill="#dca272" stroke="#5b3d2e" stroke-width="4"/><circle cx="125" cy="75" r="4" fill="#222"/><rect x="58" y="108" width="76" height="70" rx="22" fill="#45464c" stroke="#23313a" stroke-width="6"/><rect x="65" y="171" width="28" height="44" rx="10" fill="#263a58" stroke="#1c2733" stroke-width="5"/><rect x="100" y="171" width="28" height="44" rx="10" fill="#263a58" stroke="#1c2733" stroke-width="5"/><path d="M68 214h29M98 214h33" stroke="#25211f" stroke-width="9" stroke-linecap="round"/></g></g><g transform="translate(480 1100)"><g filter="url(#shadow)"><ellipse cx="96" cy="222" rx="48" ry="10" fill="#16202a" opacity=".25"/><ellipse cx="96" cy="78" rx="34" ry="34" fill="#dca272" stroke="#5b3d2e" stroke-width="4"/><path d="M60 76q2-47 38-47 38 0 39 44-20-15-37-12-20 4-40 15z" fill="#2d2827" stroke="#231b18" stroke-width="6"/><rect x="58" y="108" width="76" height="70" rx="22" fill="#45464c" stroke="#23313a" stroke-width="6"/><rect x="65" y="171" width="28" height="44" rx="10" fill="#263a58" stroke="#1c2733" stroke-width="5"/><rect x="100" y="171" width="28" height="44" rx="10" fill="#263a58" stroke="#1c2733" stroke-width="5"/><path d="M68 214h29M98 214h33" stroke="#25211f" stroke-width="9" stroke-linecap="round"/></g></g><g transform="translate(0 1320)"><g filter="url(#shadow)"><ellipse cx="96" cy="222" rx="48" ry="10" fill="#16202a" opacity=".25"/><ellipse cx="96" cy="78" rx="34" ry="34" fill="#f3c79b" stroke="#5b3d2e" stroke-width="4"/><path d="M60 76q2-47 38-47 38 0 39 44-20-15-37-12-20 4-40 15z" fill="#7a6d62" stroke="#231b18" stroke-width="6"/><circle cx="84" cy="79" r="4" fill="#222"/><circle cx="109" cy="79" r="4" fill="#222"/><path d="M88 94q8 7 17 0" fill="none" stroke="#8f4f45" stroke-width="3" stroke-linecap="round"/><rect x="58" y="108" width="76" height="70" rx="22" fill="#4e7c58" stroke="#23313a" stroke-width="6"/><rect x="65" y="171" width="28" height="44" rx="10" fill="#263a58" stroke="#1c2733" stroke-width="5"/><rect x="100" y="171" width="28" height="44" rx="10" fill="#263a58" stroke="#1c2733" stroke-width="5"/><path d="M68 214h29M98 214h33" stroke="#25211f" stroke-width="9" stroke-linecap="round"/></g></g><g transform="translate(160 1320)"><g transform="translate(160 0) scale(-1 1)" filter="url(#shadow)"><ellipse cx="96" cy="222" rx="48" ry="10" fill="#16202a" opacity=".25"/><path d="M75 48q30-28 60 2v50q-11 20-36 18-25-2-30-22z" fill="#7a6d62" stroke="#231b18" stroke-width="6"/><ellipse cx="113" cy="78" rx="27" ry="31" fill="#f3c79b" stroke="#5b3d2e" stroke-width="4"/><circle cx="125" cy="75" r="4" fill="#222"/><rect x="58" y="108" width="76" height="70" rx="22" fill="#4e7c58" stroke="#23313a" stroke-width="6"/><rect x="65" y="171" width="28" height="44" rx="10" fill="#263a58" stroke="#1c2733" stroke-width="5"/><rect x="100" y="171" width="28" height="44" rx="10" fill="#263a58" stroke="#1c2733" stroke-width="5"/><path d="M68 214h29M98 214h33" stroke="#25211f" stroke-width="9" stroke-linecap="round"/></g></g><g transform="translate(320 1320)"><g filter="url(#shadow)"><ellipse cx="96" cy="222" rx="48" ry="10" fill="#16202a" opacity=".25"/><path d="M75 48q30-28 60 2v50q-11 20-36 18-25-2-30-22z" fill="#7a6d62" stroke="#231b18" stroke-width="6"/><ellipse cx="113" cy="78" rx="27" ry="31" fill="#f3c79b" stroke="#5b3d2e" stroke-width="4"/><circle cx="125" cy="75" r="4" fill="#222"/><rect x="58" y="108" width="76" height="70" rx="22" fill="#4e7c58" stroke="#23313a" stroke-width="6"/><rect x="65" y="171" width="28" height="44" rx="10" fill="#263a58" stroke="#1c2733" stroke-width="5"/><rect x="100" y="171" width="28" height="44" rx="10" fill="#263a58" stroke="#1c2733" stroke-width="5"/><path d="M68 214h29M98 214h33" stroke="#25211f" stroke-width="9" stroke-linecap="round"/></g></g><g transform="translate(480 1320)"><g filter="url(#shadow)"><ellipse cx="96" cy="222" rx="48" ry="10" fill="#16202a" opacity=".25"/><ellipse cx="96" cy="78" rx="34" ry="34" fill="#f3c79b" stroke="#5b3d2e" stroke-width="4"/><path d="M60 76q2-47 38-47 38 0 39 44-20-15-37-12-20 4-40 15z" fill="#7a6d62" stroke="#231b18" stroke-width="6"/><rect x="58" y="108" width="76" height="70" rx="22" fill="#4e7c58" stroke="#23313a" stroke-width="6"/><rect x="65" y="171" width="28" height="44" rx="10" fill="#263a58" stroke="#1c2733" stroke-width="5"/><rect x="100" y="171" width="28" height="44" rx="10" fill="#263a58" stroke="#1c2733" stroke-width="5"/><path d="M68 214h29M98 214h33" stroke="#25211f" stroke-width="9" stroke-linecap="round"/></g></g><g transform="translate(0 1540)"><g filter="url(#shadow)"><ellipse cx="96" cy="222" rx="48" ry="10" fill="#16202a" opacity=".25"/><ellipse cx="96" cy="78" rx="34" ry="34" fill="#c98b64" stroke="#5b3d2e" stroke-width="4"/><path d="M60 76q2-47 38-47 38 0 39 44-20-15-37-12-20 4-40 15z" fill="#202326" stroke="#231b18" stroke-width="6"/><circle cx="84" cy="79" r="4" fill="#222"/><circle cx="109" cy="79" r="4" fill="#222"/><path d="M88 94q8 7 17 0" fill="none" stroke="#8f4f45" stroke-width="3" stroke-linecap="round"/><rect x="58" y="108" width="76" height="70" rx="22" fill="#2f5c8b" stroke="#23313a" stroke-width="6"/><rect x="65" y="171" width="28" height="44" rx="10" fill="#263a58" stroke="#1c2733" stroke-width="5"/><rect x="100" y="171" width="28" height="44" rx="10" fill="#263a58" stroke="#1c2733" stroke-width="5"/><path d="M68 214h29M98 214h33" stroke="#25211f" stroke-width="9" stroke-linecap="round"/><path d="M38 124v56h38" fill="none" stroke="#59422f" stroke-width="8"/><rect x="25" y="163" width="51" height="31" rx="6" fill="#75533b"/></g></g><g transform="translate(160 1540)"><g transform="translate(160 0) scale(-1 1)" filter="url(#shadow)"><ellipse cx="96" cy="222" rx="48" ry="10" fill="#16202a" opacity=".25"/><path d="M75 48q30-28 60 2v50q-11 20-36 18-25-2-30-22z" fill="#202326" stroke="#231b18" stroke-width="6"/><ellipse cx="113" cy="78" rx="27" ry="31" fill="#c98b64" stroke="#5b3d2e" stroke-width="4"/><circle cx="125" cy="75" r="4" fill="#222"/><rect x="58" y="108" width="76" height="70" rx="22" fill="#2f5c8b" stroke="#23313a" stroke-width="6"/><rect x="65" y="171" width="28" height="44" rx="10" fill="#263a58" stroke="#1c2733" stroke-width="5"/><rect x="100" y="171" width="28" height="44" rx="10" fill="#263a58" stroke="#1c2733" stroke-width="5"/><path d="M68 214h29M98 214h33" stroke="#25211f" stroke-width="9" stroke-linecap="round"/><path d="M38 124v56h38" fill="none" stroke="#59422f" stroke-width="8"/><rect x="25" y="163" width="51" height="31" rx="6" fill="#75533b"/></g></g><g transform="translate(320 1540)"><g filter="url(#shadow)"><ellipse cx="96" cy="222" rx="48" ry="10" fill="#16202a" opacity=".25"/><path d="M75 48q30-28 60 2v50q-11 20-36 18-25-2-30-22z" fill="#202326" stroke="#231b18" stroke-width="6"/><ellipse cx="113" cy="78" rx="27" ry="31" fill="#c98b64" stroke="#5b3d2e" stroke-width="4"/><circle cx="125" cy="75" r="4" fill="#222"/><rect x="58" y="108" width="76" height="70" rx="22" fill="#2f5c8b" stroke="#23313a" stroke-width="6"/><rect x="65" y="171" width="28" height="44" rx="10" fill="#263a58" stroke="#1c2733" stroke-width="5"/><rect x="100" y="171" width="28" height="44" rx="10" fill="#263a58" stroke="#1c2733" stroke-width="5"/><path d="M68 214h29M98 214h33" stroke="#25211f" stroke-width="9" stroke-linecap="round"/><path d="M38 124v56h38" fill="none" stroke="#59422f" stroke-width="8"/><rect x="25" y="163" width="51" height="31" rx="6" fill="#75533b"/></g></g><g transform="translate(480 1540)"><g filter="url(#shadow)"><ellipse cx="96" cy="222" rx="48" ry="10" fill="#16202a" opacity=".25"/><ellipse cx="96" cy="78" rx="34" ry="34" fill="#c98b64" stroke="#5b3d2e" stroke-width="4"/><path d="M60 76q2-47 38-47 38 0 39 44-20-15-37-12-20 4-40 15z" fill="#202326" stroke="#231b18" stroke-width="6"/><rect x="58" y="108" width="76" height="70" rx="22" fill="#2f5c8b" stroke="#23313a" stroke-width="6"/><rect x="65" y="171" width="28" height="44" rx="10" fill="#263a58" stroke="#1c2733" stroke-width="5"/><rect x="100" y="171" width="28" height="44" rx="10" fill="#263a58" stroke="#1c2733" stroke-width="5"/><path d="M68 214h29M98 214h33" stroke="#25211f" stroke-width="9" stroke-linecap="round"/><path d="M38 124v56h38" fill="none" stroke="#59422f" stroke-width="8"/><rect x="25" y="163" width="51" height="31" rx="6" fill="#75533b"/></g></g></svg>